<svg height="160" viewBox="0 0 160 160" width="160" xmlns="http://www.w3.org/2000/svg"><g fill="none" fill-rule="evenodd"><path d="m0 0h160v160h-160z" fill="#f4f1ef"/><path d="m24 23h33v36h-33z" fill="#fbc7a5"/><path d="m104 74h33v64h-33z" fill="#fbc7a5"/><g transform="translate(66 23)"><path d="m0 9h69v-9h-69z" fill="#2e10a6"/><path d="m0 23h69v-9h-69z" fill="#fbc7a5"/><path d="m0 36h69v-9h-69z" fill="#2e10a6"/></g><g transform="translate(24 74)"><path d="m0 9h69v-9h-69z" fill="#2e10a6"/><path d="m0 23h69v-9h-69z" fill="#fbc7a5"/><path d="m0 36h69v-9h-69z" fill="#2e10a6"/></g><g transform="translate(24 115)"><path d="m0 9h69v-9h-69z" fill="#fbc7a5"/><path d="m0 23h69v-9h-69z" fill="#2e10a6"/></g></g></svg>