<svg xmlns="http://www.w3.org/2000/svg" width="160" height="160"><g fill="none" fill-rule="evenodd"><path fill="#390E0A" d="M0 0H160V160H0z"/><g transform="translate(28 47)" fill-rule="nonzero"><path fill="#E18B2A" d="M25.25 51.75H27.75V54.25H25.25z"/><path fill="#F4F1EF" d="M15.254 66.162L22.75 66.162 22.75 63.8967256 22.75 54.8356279 22.75 47.0920138 15.296 45.162z"/><path d="M77.75 4.441v47.118l-52.5-7.5-5.008-.716-4.936-.705-2.499-.357-2.557-.365V14.084l67.5-9.643z" fill="#E18B2A"/><path fill="#F4F1EF" d="M0.25 14.25H7.75V41.75H0.25z"/><path fill="#F4F1EF" d="M80 3.399L80 53.399 80 54.923 87.5 56.798 87.5 0 80 1.875z"/><g transform="translate(95 12)"><path fill="#F4F1EF" transform="rotate(90.156 8.957 17.587)" d="M6.757 11.587H11.157V23.587H6.757z"/><path fill="#E38B28" transform="rotate(156.169 8 5.2)" d="M2 3H14V7.4H2z"/><path fill="#E38B28" transform="rotate(116.996 6.406 28.317)" d="M4.206 22.317H8.606000000000002V34.317H4.206z"/></g></g></g></svg>