<svg width="160" height="160" xmlns="http://www.w3.org/2000/svg"><g fill="none" fill-rule="evenodd"><path fill="#390E0A" d="M0 0H160V160H0z"/><g transform="translate(14 39)"><path fill="#F4F1EF" transform="rotate(65 71.525 44.586)" d="M66.7099538 61.4386985L76.3939382 61.4543514 76.3392839 27.7330964 66.6552995 27.7174435z"/><path fill="#DF8B2C" transform="rotate(65 64.303 27.91)" d="M53.8339067 38.3504589L74.8066047 38.3843586 74.7727051 17.4685509 53.800007 17.4346512z"/><path fill="#DF8B2C" transform="rotate(65 27.625 45.312)" d="M22.827902 72.8748791L32.5118865 72.890532 32.4225146 17.7488572 22.7385302 17.7332043z"/><path fill="#F4F1EF" transform="rotate(65 56.325 12.15)" d="M51.5099538 29.0019168L61.1939382 29.0175698 61.1392839 -4.7036852 51.4552995 -4.71933811z"/><path fill="#F4F1EF" transform="rotate(90 73.291 77.883)" d="M68.4455952 122.532959L78.1368788 122.532959 78.1368788 33.2329591 68.4455952 33.2329591z"/><path fill="#DF8B2C" transform="rotate(90 73.291 65.958)" d="M68.4455952 98.7326718L78.1368788 98.7326718 78.1368788 33.1826718 68.4455952 33.1826718z"/><g transform="rotate(90 44.974 86.356)" fill-rule="nonzero"><path fill="#F4F1EF" d="M15.432 0H19.232V10.494H15.432z"/><path fill="#DF8B2C" d="M23.4365945 10.9371921L31.2740945 3.06650246 33.8865945 5.69006568 26.0490945 13.5607553z"/><path fill="#DF8B2C" d="M3.64153152e-13 5.69006568L2.6125 3.06650246 10.45 10.9371921 7.8375 13.5607553z"/></g></g></g></svg>