<svg xmlns="http://www.w3.org/2000/svg" xmlns:xlink="http://www.w3.org/1999/xlink" width="160" height="160"><defs><path id="a" d="M0.1390932 0.1015692L54.947644 0.1015692 54.947644 57.876 0.1390932 57.876z"/><path id="c" d="M0 0.0026924L13.2981876 0.0026924 13.2981876 17.1986484 0 17.1986484z"/></defs><g fill="none" fill-rule="evenodd"><path fill="#390E0A" d="M0 0H160V160H0z"/><g transform="translate(29 38)"><path d="M59.303 7.203l-1.199 1.2 1.212-1.212-.013.012" fill="#2E10A6"/><path d="M29.803 65.226L90.978 4.05a25.024 25.024 0 0 0-5.16-2.634L25.904 61.328l3.898 3.898z" fill="#FFF"/><path fill="#DF8B2C" d="M58.1043028 8.402302L51.0126908 15.493914 51.0137508 15.494974z"/><path d="M15.376 51.131l3.897 3.898.158-.158c-2.798-2.792-2.947-2.924-3.93-3.864l-.125.124z" fill="#DF8B2C"/><path d="M59.315 7.191l-1.21 1.211-7.091 7.093-.001-.001L15.5 51.007c.984.94 1.133 1.072 3.93 3.864L74.303.001c-5.66.614-10.9 3.112-14.987 7.19M40.12 75.53l60.16-60.16a25.046 25.046 0 0 0-2.782-5.013L36.222 71.632l3.898 3.897z" fill="#DF8B2C"/><g transform="translate(47.064 27.739)"><mask id="b" fill="#fff"><use xlink:href="#a"/></mask><path d="M5.482 57.256l42.273-42.273c4.058-4.059 6.555-9.262 7.193-14.881L.139 54.91l2.346 2.346a2.121 2.121 0 0 0 2.997 0" fill="#FFF" mask="url(#b)"/></g><path d="M23.496 30.51L4.043 11.06a24.937 24.937 0 0 0-2.632 5.163l18.187 18.186 3.898-3.897z" fill="#DF8B2C"/><g transform="translate(0 27.739)"><mask id="d" fill="#fff"><use xlink:href="#c"/></mask><path d="M13.298 13.301L0 .003c.6 5.4 2.947 10.642 7.043 14.813l.087.112 2.27 2.27 3.898-3.897z" fill="#FFF" mask="url(#d)"/></g><path d="M33.799 20.193L15.355 1.75a24.94 24.94 0 0 0-5.008 2.787L29.901 24.09l3.898-3.898z" fill="#FFF"/><path d="M44.801 9.282l-2.079-2.079A25.013 25.013 0 0 0 27.814.006l13.132 13.131 3.855-3.855z" fill="#DF8B2C"/></g></g></svg>