<svg xmlns="http://www.w3.org/2000/svg" xmlns:xlink="http://www.w3.org/1999/xlink" width="384" height="300"><defs><path id="a" d="M0.789230769 0.612923077L0.789230769 67.8470769 34.5406154 67.8470769 34.5406154 54.1689231 17.8550769 54.1689231 17.8550769 40.8387692 26.772 40.8387692 26.772 28.4344615 17.7286154 28.4344615 17.7286154 14.7553846 34.5406154 14.7553846 34.5406154 0.612923077z"/></defs><g fill="none" fill-rule="evenodd"><path fill="#390E0A" d="M68.5901538 21.5898462L379.095692 21.5898462 379.095692 0.741230769 68.5901538 0.741230769z"/><path fill="#390E0A" d="M68.5901538 60.3756923L379.095692 60.3756923 379.095692 39.5261538 68.5901538 39.5261538z"/><path fill="#390E0A" d="M0.970153846 96.8584615L379.097538 96.8584615 379.097538 76.0107692 0.970153846 76.0107692z"/><path fill="#390E0A" d="M0.970153846 135.081231L379.097538 135.081231 379.097538 114.232615 0.970153846 114.232615z"/><path fill="#390E0A" d="M0.970153846 173.304L379.097538 173.304 379.097538 152.456308 0.970153846 152.456308z"/><path fill="#390E0A" d="M0.970153846 211.524L379.097538 211.524 379.097538 190.676308 0.970153846 190.676308z"/><path fill="#390E0A" d="M0.663692308 60.3738462L52.3449231 60.3738462 52.3449231 1.164 0.663692308 1.164z"/><g transform="translate(.923 229.81)" fill="#390E0A"><path d="M22.271 41.065c-.72-1.002-1.636-1.506-2.738-1.506h-3.437v16.807h3.437c1.188 0 2.122-.464 2.803-1.39.678-.928 1.019-2.124 1.019-3.593v-7.071c0-1.16-.362-2.241-1.084-3.247m-.382-14.72c.976-1.083 1.466-2.474 1.466-4.174v-2.087c0-4.095-1.87-6.143-5.604-6.143h-1.655v14.141h1.655c1.782-.075 3.162-.655 4.138-1.738M34.308 63.96c-3.142 3.208-7.43 4.812-12.864 4.812H.047V1.537h21.27c5.432 0 9.743 1.605 12.927 4.811 3.184 3.207 4.776 7.168 4.776 11.88 0 4.639-.554 7.904-1.655 9.796-1.106 1.895-3.015 3.343-5.733 4.348v.231c5.095 2.01 7.642 5.372 7.642 10.084l-.126 9.39c-.087 4.715-1.7 8.677-4.84 11.882M63.474 33.3h-.128L60.29 53.005h5.987l-2.802-19.706zM68.95 68.77l-1.018-7.418h-8.535l-.89 7.418h-12.1l10.7-67.234h15.41l12.99 67.234H68.95zm49.418-50.193c0-1.159-.446-2.184-1.338-3.072-.891-.888-1.973-1.332-3.247-1.332-1.274 0-2.357.444-3.247 1.332-.894.888-1.338 1.913-1.338 3.072v33.5c0 1.16.444 2.146 1.338 2.956.89.813 1.973 1.218 3.247 1.218 1.274 0 2.356-.405 3.247-1.218.892-.81 1.338-1.796 1.338-2.955V42.34h12.482v11.012c0 4.715-1.72 8.656-5.16 11.823-3.438 3.17-7.918 4.753-13.436 4.753h-.764c-6.03 0-10.761-1.814-14.2-5.448-3.44-3.631-5.159-8.152-5.159-13.563V16.955c0-3.014.848-5.797 2.547-8.348 1.698-2.55 4.013-4.577 6.94-6.085 2.932-1.506 6.261-2.26 10-2.26h.636c6.368 0 11.081 1.854 14.137 5.563 3.057 3.71 4.586 8.193 4.586 13.448v8.925h-12.609v-9.621z"/><path d="M166.508585 68.7696923L161.159354 48.7167692 160.648892 44.658 158.739046 49.5272308 158.739046 68.6543077 141.546738 68.6543077 141.546738 1.53738462 158.866431 1.53738462 158.866431 11.5056923 158.355969 21.2432308 160.648892 15.0992308 166.764277 1.53738462 182.428892 1.53738462 172.494738 21.2432308 183.319662 68.7696923z"/><path d="M213.823 41.065c-.723-1.002-1.636-1.506-2.739-1.506h-3.438v16.807h3.438c1.188 0 2.122-.464 2.804-1.39.678-.928 1.018-2.124 1.018-3.593v-7.071c0-1.16-.363-2.241-1.083-3.247m-.382-14.72c.976-1.083 1.465-2.474 1.465-4.174v-2.087c0-4.095-1.87-6.143-5.603-6.143h-1.657v14.141h1.657c1.781-.075 3.161-.655 4.138-1.738m12.418 37.615c-3.142 3.208-7.43 4.812-12.863 4.812h-21.397V1.537h21.27c5.432 0 9.743 1.605 12.925 4.811 3.185 3.207 4.777 7.168 4.777 11.88 0 4.639-.553 7.904-1.654 9.796-1.106 1.895-3.017 3.343-5.733 4.348v.231c5.095 2.01 7.642 5.372 7.642 10.084l-.128 9.39c-.085 4.715-1.7 8.677-4.839 11.882m34.896-7.824c2.717 0 4.076-1.931 4.076-5.796V19.968c0-3.863-1.36-5.796-4.076-5.796-2.632 0-3.948 1.933-3.948 5.796v30.37c0 3.866 1.316 5.797 3.948 5.797M245.79 6.522c3.523-4.096 8.639-6.144 15.347-6.144 6.623 0 11.592 2.029 14.902 6.085 3.31 4.058 4.967 9.448 4.967 16.171v25.039c0 6.724-1.656 12.113-4.967 16.17-3.31 4.057-8.28 6.086-14.902 6.086-6.708 0-11.824-2.046-15.347-6.144-3.524-4.095-5.285-9.465-5.285-16.112V22.634c0-6.646 1.761-12.015 5.285-16.112"/><path d="M332.204492 68.7696923L320.996492 68.7696923 305.585723 35.154 305.585723 68.7696923 292.085723 68.7696923 292.085723 1.53738462 305.967877 1.53738462 318.703569 27.2709231 318.703569 1.53738462 332.204492 1.53738462z"/><path d="M361.113692 29.3573538L370.156154 29.3573538 370.156154 41.7616615 361.240154 41.7616615 361.240154 55.0918154 377.924769 55.0918154 377.924769 68.7690462 344.173385 68.7690462 344.173385 1.53673846 377.924769 1.53673846 377.924769 15.6792 361.113692 15.6792z"/></g></g></svg>